<svg width="27" height="28" viewBox="0 0 27 28" fill="none" xmlns="http://www.w3.org/2000/svg">
<path d="M20.375 7.125H20.3875M7.25 1.5H19.75C23.2018 1.5 26 4.29822 26 7.75V20.25C26 23.7018 23.2018 26.5 19.75 26.5H7.25C3.79822 26.5 1 23.7018 1 20.25V7.75C1 4.29822 3.79822 1.5 7.25 1.5ZM18.5 13.2125C18.6543 14.2528 18.4766 15.3153 17.9922 16.2488C17.5078 17.1823 16.7414 17.9393 15.802 18.4121C14.8626 18.8849 13.7981 19.0495 12.7597 18.8824C11.7214 18.7153 10.7622 18.2251 10.0185 17.4815C9.2749 16.7378 8.78467 15.7786 8.61758 14.7403C8.4505 13.7019 8.61508 12.6374 9.08791 11.698C9.56073 10.7586 10.3177 9.99218 11.2512 9.5078C12.1847 9.02343 13.2472 8.84574 14.2875 9C15.3487 9.15736 16.3311 9.65183 17.0896 10.4104C17.8482 11.1689 18.3426 12.1513 18.5 13.2125Z" stroke="url(#paint0_linear_14_2)" stroke-width="2" stroke-linecap="round" stroke-linejoin="round"/>
<defs>
<linearGradient id="paint0_linear_14_2" x1="1" y1="14" x2="26" y2="14" gradientUnits="userSpaceOnUse">
<stop stop-color="#CC9C48"/>
<stop offset="0.5" stop-color="#DBB763"/>
<stop offset="0.75" stop-color="#EAD77C"/>
<stop offset="1" stop-color="#EAD16D"/>
</linearGradient>
</defs>
</svg>
