<svg width="27" height="28" viewBox="0 0 27 28" fill="none" xmlns="http://www.w3.org/2000/svg">
<path d="M26 20.15V23.9C26.0014 24.2481 25.9301 24.5927 25.7906 24.9117C25.6512 25.2307 25.4466 25.517 25.1901 25.7523C24.9336 25.9877 24.6307 26.1669 24.3009 26.2784C23.9712 26.3899 23.6217 26.4313 23.275 26.4C19.4286 25.982 15.7338 24.6677 12.4875 22.5625C9.46729 20.6433 6.90668 18.0827 4.98751 15.0625C2.87498 11.8015 1.56031 8.08874 1.15001 4.225C1.11877 3.87933 1.15985 3.53095 1.27063 3.20203C1.38142 2.87311 1.55947 2.57086 1.79347 2.31453C2.02746 2.05819 2.31226 1.85339 2.62975 1.71315C2.94723 1.57292 3.29043 1.50033 3.63751 1.5H7.38751C7.99414 1.49403 8.58225 1.70885 9.04221 2.10441C9.50217 2.49998 9.8026 3.04931 9.88751 3.65C10.0458 4.85008 10.3393 6.02841 10.7625 7.1625C10.9307 7.6099 10.9671 8.09614 10.8674 8.5636C10.7677 9.03106 10.5361 9.46014 10.2 9.8L8.61251 11.3875C10.392 14.5169 12.9831 17.1081 16.1125 18.8875L17.7 17.3C18.0399 16.9639 18.469 16.7323 18.9364 16.6326C19.4039 16.5329 19.8901 16.5693 20.3375 16.7375C21.4716 17.1607 22.6499 17.4542 23.85 17.6125C24.4572 17.6982 25.0118 18.004 25.4082 18.4719C25.8046 18.9397 26.0152 19.537 26 20.15Z" stroke="url(#paint0_linear_14_134)" stroke-width="2" stroke-linecap="round" stroke-linejoin="round"/>
<defs>
<linearGradient id="paint0_linear_14_134" x1="1.13986" y1="13.955" x2="26.0008" y2="13.955" gradientUnits="userSpaceOnUse">
<stop stop-color="#CC9C48"/>
<stop offset="0.5" stop-color="#DBB763"/>
<stop offset="0.75" stop-color="#EAD77C"/>
<stop offset="1" stop-color="#EAD16D"/>
</linearGradient>
</defs>
</svg>
